<svg width="17" height="17" viewBox="0 0 17 17" fill="none" xmlns="http://www.w3.org/2000/svg">
<g clip-path="url(#clip0_621_152)">
<path d="M13.4353 10.5308C13.0873 10.1684 12.6675 9.97466 12.2226 9.97466C11.7813 9.97466 11.3579 10.1648 10.9955 10.5272L9.86171 11.6574C9.76842 11.6072 9.67513 11.5605 9.58544 11.5139C9.45627 11.4493 9.33428 11.3883 9.23023 11.3237C8.16819 10.6492 7.20303 9.77015 6.27733 8.63276C5.82883 8.06586 5.52745 7.58866 5.30858 7.10429C5.60279 6.83519 5.87548 6.55533 6.14099 6.28623C6.24145 6.18577 6.34191 6.08172 6.44238 5.98125C7.19585 5.22778 7.19585 4.25185 6.44238 3.49838L5.46286 2.51887C5.35163 2.40764 5.23682 2.29282 5.12918 2.17801C4.9139 1.95555 4.68786 1.72592 4.45464 1.51065C4.10661 1.1662 3.69041 0.983215 3.25267 0.983215C2.81494 0.983215 2.39156 1.1662 2.03277 1.51065C2.02918 1.51423 2.02918 1.51423 2.02559 1.51782L0.805682 2.74849C0.346422 3.20775 0.0845005 3.76748 0.0270931 4.4169C-0.0590181 5.46459 0.249547 6.44051 0.486353 7.07917C1.0676 8.64711 1.93589 10.1002 3.23115 11.6574C4.80268 13.5339 6.69353 15.0158 8.85349 16.0598C9.67872 16.4509 10.7802 16.9138 12.0109 16.9927C12.0862 16.9963 12.1652 16.9999 12.2369 16.9999C13.0658 16.9999 13.7618 16.7021 14.3072 16.1101C14.3108 16.1029 14.318 16.0993 14.3216 16.0921C14.5081 15.8661 14.7234 15.6616 14.9494 15.4427C15.1037 15.2956 15.2616 15.1413 15.4159 14.9799C15.7711 14.6103 15.9577 14.1798 15.9577 13.7384C15.9577 13.2935 15.7675 12.8666 15.4051 12.5078L13.4353 10.5308ZM14.7198 14.3089C14.7162 14.3089 14.7162 14.3125 14.7198 14.3089C14.5799 14.4596 14.4364 14.596 14.2821 14.7467C14.0489 14.9691 13.8121 15.2023 13.5896 15.4642C13.2272 15.8517 12.8003 16.0347 12.2405 16.0347C12.1867 16.0347 12.1293 16.0347 12.0755 16.0311C11.0099 15.963 10.0196 15.5468 9.27687 15.1916C7.24608 14.2085 5.46286 12.8127 3.98103 11.0439C2.75754 9.56922 1.93948 8.20579 1.3977 6.7419C1.06402 5.8485 0.942025 5.15243 0.995844 4.49583C1.03172 4.07604 1.19318 3.72801 1.49098 3.43021L2.71448 2.20671C2.89029 2.04167 3.07686 1.95197 3.25985 1.95197C3.48589 1.95197 3.66888 2.08831 3.78369 2.20312C3.78728 2.20671 3.79087 2.2103 3.79446 2.21389C4.01332 2.4184 4.22143 2.63009 4.44029 2.85613C4.55152 2.97095 4.66633 3.08576 4.78115 3.20417L5.76066 4.18368C6.14099 4.56401 6.14099 4.91563 5.76066 5.29595C5.65661 5.4 5.55615 5.50405 5.4521 5.60452C5.15071 5.91308 4.86367 6.20012 4.55152 6.47998C4.54434 6.48716 4.53717 6.49074 4.53358 6.49792C4.22501 6.80648 4.28242 7.10787 4.347 7.31239C4.35059 7.32315 4.35418 7.33392 4.35777 7.34468C4.61251 7.96181 4.97131 8.54306 5.51668 9.23554L5.52027 9.23913C6.51055 10.459 7.55465 11.4098 8.70638 12.1382C8.85349 12.2315 9.00418 12.3068 9.1477 12.3786C9.27687 12.4432 9.39886 12.5042 9.50291 12.5688C9.51726 12.5759 9.53162 12.5867 9.54597 12.5939C9.66796 12.6549 9.78277 12.6836 9.90118 12.6836C10.199 12.6836 10.3856 12.497 10.4465 12.436L11.6736 11.2089C11.7956 11.0869 11.9894 10.9398 12.2154 10.9398C12.4379 10.9398 12.6209 11.0798 12.7321 11.2017C12.7357 11.2053 12.7357 11.2053 12.7393 11.2089L14.7162 13.1859C15.0858 13.5519 15.0858 13.9286 14.7198 14.3089Z" fill="white"/>
<path d="M9.18715 4.04383C10.1272 4.2017 10.9811 4.64661 11.6628 5.32832C12.3446 6.01004 12.7859 6.86397 12.9473 7.80402C12.9868 8.04082 13.1913 8.20587 13.4245 8.20587C13.4532 8.20587 13.4784 8.20228 13.5071 8.1987C13.7726 8.15564 13.9484 7.90448 13.9053 7.63897C13.7116 6.50159 13.1734 5.46467 12.3517 4.64302C11.5301 3.82138 10.4932 3.28318 9.35579 3.08943C9.09028 3.04638 8.84271 3.22219 8.79607 3.48411C8.74942 3.74603 8.92165 4.00078 9.18715 4.04383Z" fill="white"/>
<path d="M16.9802 7.499C16.6609 5.62608 15.7782 3.92179 14.422 2.56554C13.0657 1.20929 11.3614 0.326653 9.48852 0.00732353C9.2266 -0.03932 8.97903 0.140078 8.93238 0.402C8.88933 0.667509 9.06514 0.915079 9.33065 0.961723C11.0026 1.24517 12.5275 2.03811 13.7403 3.24726C14.953 4.45999 15.7423 5.98488 16.0258 7.65687C16.0653 7.89367 16.2698 8.05872 16.503 8.05872C16.5317 8.05872 16.5568 8.05513 16.5855 8.05154C16.8474 8.01208 17.0268 7.76092 16.9802 7.499Z" fill="white"/>
</g>
<defs>
<clipPath id="clip0_621_152">
<rect width="17" height="17" fill="white"/>
</clipPath>
</defs>
</svg>
