<svg width="16" height="16" viewBox="0 0 16 16" fill="none" xmlns="http://www.w3.org/2000/svg">
<g clip-path="url(#clip0_621_168)">
<path d="M13.2811 2.76455C12.0672 1.00756 10.1434 0 8.00341 0C5.86328 0 3.93962 1.00756 2.72558 2.76455C1.51754 4.51284 1.23828 6.72588 1.97787 8.68179C2.17336 9.20962 2.48529 9.7236 2.90324 10.2076L7.72515 15.8716C7.79465 15.9531 7.89624 16 8.00341 16C8.11043 16 8.21203 15.9531 8.28152 15.8716L13.1026 10.2088C13.5389 9.7032 13.842 9.20334 14.0292 8.68094C14.7681 6.72346 14.4886 4.51199 13.2811 2.76455ZM13.3446 8.42566C13.3439 8.4278 13.343 8.42994 13.3423 8.43208C13.1839 8.87557 12.9318 9.28867 12.5488 9.73202L12.5471 9.73402L8.00341 15.0712L3.45789 9.73202C3.09545 9.3125 2.82804 8.87357 2.66208 8.42566C2.00655 6.69192 2.25498 4.73088 3.32661 3.17979C4.40224 1.62329 6.10672 0.730594 8.00341 0.730594C9.89995 0.730594 11.6046 1.62329 12.6801 3.17979C13.7517 4.73088 14.0003 6.69192 13.3446 8.42566Z" fill="white"/>
<path d="M8.00339 2.70312C5.94461 2.70312 4.27551 4.37208 4.27551 6.43087C4.27551 8.48966 5.94461 10.1587 8.00339 10.1587C10.0622 10.1587 11.7311 8.48966 11.7311 6.43087C11.7289 4.37307 10.0612 2.70541 8.00339 2.70312ZM8.00339 9.4283C6.348 9.4283 5.00611 8.0864 5.00611 6.43101C5.00611 4.77576 6.348 3.43386 8.00339 3.43386C9.65865 3.43386 11.0005 4.77576 11.0005 6.43115C10.9987 8.08555 9.65779 9.4263 8.00339 9.4283Z" fill="white"/>
</g>
<defs>
<clipPath id="clip0_621_168">
<rect width="16" height="16" fill="white"/>
</clipPath>
</defs>
</svg>
